<svg width="256" height="256" xmlns="http://www.w3.org/2000/svg" xmlns:xlink="http://www.w3.org/1999/xlink" xml:space="preserve" overflow="hidden"><g transform="translate(-31 0)"><path d="M57.4 104.8C57.9333 105.067 58.7333 105.067 59 104.533 63.2667 100.267 68.6 97.0667 74.4667 95.2 95.8 89.0667 119.267 102.933 127.267 126.4 131 137.067 130.733 148.8 126.2 159.467 124.6 162.933 122.733 166.133 120.333 169.067 120.067 169.333 120.067 169.867 120.333 170.4 120.6 170.933 121.133 171.2 121.667 170.933 143.533 169.333 152.867 169.6 173.4 148.267 178.2 143.2 183.8 137.333 190.467 130.667 190.733 130.4 191 129.867 190.733 129.6 190.733 129.067 190.467 128.8 189.933 128.8 182.467 125.867 176.333 120.267 173.133 113.067 159 78.6667 128.333 63.7333 98.4667 71.2 80.6 75.4667 65.6667 87.2 57.1333 103.2 56.6 103.733 56.8667 104.533 57.4 104.8Z" fill="#FFFFFF"/><path d="M61.6667 130.667C61.4 130.4 60.8667 130.133 60.6 130.133 60.0667 130.133 59.8 130.4 59.5333 130.933 58.7333 133.333 59 136.267 60.0667 138.667 63 145.067 70.4667 148 77.1333 145.333 83.5333 143.2 86.7333 136.267 84.6 130.133 84.6 129.867 84.3333 129.6 84.3333 129.333L84.0667 128.8C82.2 124.533 77.1333 122.667 72.8667 124.267 68.8667 125.6 66.4667 130.133 67.8 134.133 67.8 134.4 67.8 134.4 68.0667 134.667 68.0667 134.933 68.3333 135.2 68.6 135.467 65.6667 135.2 63 133.333 61.6667 130.667Z" fill="#FFFFFF"/><path d="M117.933 128.533C112.067 111.733 97.6667 100.8 82.7333 101.867 80.8667 102.133 78.7333 102.4 76.8667 102.933 68.0667 105.6 61.6667 112.267 58.4667 122.4 58.2 122.933 58.4667 123.467 59 123.733 59.5333 124 60.3333 124 60.6 123.467 61.4 122.667 62.2 122.133 63 121.333 66.2 118.133 70.4667 116.267 74.7333 116 84.3333 114.933 93.1333 121.867 94.2 131.467 94.7333 140.8 87.8 148.8 78.7333 149.6 78.2 149.6 77.9333 149.867 77.6667 150.4 77.4 150.933 77.6667 151.2 77.9333 151.733 84.8667 160.533 93.9333 165.067 102.467 164.533 104.333 164.267 106.2 164 108.067 163.2 119.267 158.933 123.267 143.733 117.933 128.533Z" fill="#FFFFFF"/><path d="M235.267 117.333C237.667 111.467 240.867 105.867 244.333 100.8 247.533 99.4667 249.4 95.7333 248.333 92.2667 247.533 89.8667 245.933 88.2667 243.533 87.4667 239.8 86.4 236.067 88.5333 235 92.2667 234.733 93.3333 234.733 94.6667 235 95.7333 231 101.867 227.533 108.267 224.867 114.933L224.333 116.533C223.8 118.4 223 120 222.467 121.867 221.4 125.067 220.333 127.733 219 130.667 216.6 136.267 211 139.467 204.867 138.933L193.133 137.6C163.267 169.067 158.2 177.067 121.667 177.067 97.9333 177.067 84.3333 169.6 74.7333 160L40.6 171.2C37.9333 172 36.3333 175.2 37.1333 177.867 37.6667 179.467 39 180.8 40.8667 181.333 48.3333 183.467 56.3333 184.8 64.0667 185.333 69.4 185.333 193.4 185.333 223.267 185.333 227.267 185.333 231 183.467 233.667 180.267 236.067 177.333 239 173.333 241.4 169.6 244.067 165.867 243.8 160.533 240.867 157.067L240.867 157.067C240.067 156 240.067 154.4 240.867 153.333 245.4 147.467 250.467 141.867 256.067 137.067 261.667 133.067 267.533 129.6 273.667 126.4 277.4 126.933 281.133 124.267 281.667 120.533 281.933 117.867 280.867 115.2 278.733 113.867 277.133 112.8 275 112.533 273.133 113.067 270.733 113.333 268.867 115.2 268.333 117.333 261.933 120.533 256.067 124.267 250.2 128.533 244.333 132.8 237.933 136.8 231.533 140.267 231.533 132.533 232.867 124.8 235.267 117.333Z" fill="#FFFFFF"/></g></svg>